<svg width="28" height="28" viewBox="0 0 28 28" fill="none" xmlns="http://www.w3.org/2000/svg"><path d="M4.66667 20.9997V20.7663C4.66667 18.8062 4.66667 17.8261 5.04814 17.0774C5.3837 16.4188 5.91913 15.8834 6.5777 15.5478C7.32639 15.1663 8.30648 15.1663 10.2667 15.1663H17.7333C19.6935 15.1663 20.6736 15.1663 21.4223 15.5478C22.0809 15.8834 22.6163 16.4188 22.9519 17.0774C23.3333 17.8261 23.3333 18.8062 23.3333 20.7663V20.9997M4.66667 20.9997C3.378 20.9997 2.33333 22.0443 2.33333 23.333C2.33333 24.6217 3.378 25.6663 4.66667 25.6663C5.95533 25.6663 7 24.6217 7 23.333C7 22.0443 5.95533 20.9997 4.66667 20.9997ZM23.3333 20.9997C22.0447 20.9997 21 22.0443 21 23.333C21 24.6217 22.0447 25.6663 23.3333 25.6663C24.622 25.6663 25.6667 24.6217 25.6667 23.333C25.6667 22.0443 24.622 20.9997 23.3333 20.9997ZM14 20.9997C12.7113 20.9997 11.6667 22.0443 11.6667 23.333C11.6667 24.6217 12.7113 25.6663 14 25.6663C15.2887 25.6663 16.3333 24.6217 16.3333 23.333C16.3333 22.0443 15.2887 20.9997 14 20.9997ZM14 20.9997V9.33301M7 9.33301H21C22.0872 9.33301 22.6308 9.33301 23.0596 9.15539C23.6313 8.91857 24.0856 8.46433 24.3224 7.8926C24.5 7.4638 24.5 6.9202 24.5 5.83301C24.5 4.74581 24.5 4.20221 24.3224 3.77341C24.0856 3.20168 23.6313 2.74744 23.0596 2.51062C22.6308 2.33301 22.0872 2.33301 21 2.33301H7C5.9128 2.33301 5.3692 2.33301 4.9404 2.51062C4.36867 2.74744 3.91443 3.20168 3.67761 3.77341C3.5 4.20221 3.5 4.74581 3.5 5.83301C3.5 6.9202 3.5 7.4638 3.67761 7.8926C3.91443 8.46433 4.36867 8.91857 4.9404 9.15539C5.3692 9.33301 5.9128 9.33301 7 9.33301Z" stroke="white" stroke-width="2" stroke-linecap="round" stroke-linejoin="round"/></svg>