<svg width="28" height="28" viewBox="0 0 28 28" fill="none" xmlns="http://www.w3.org/2000/svg">
<path d="M16.3333 8.16667H22.9138C23.4356 8.16667 23.6966 8.16667 23.8492 8.27638C23.9823 8.37211 24.069 8.51945 24.088 8.68233C24.1098 8.869 23.9831 9.09709 23.7297 9.55327L22.1592 12.3801C22.0673 12.5455 22.0214 12.6282 22.0033 12.7158C21.9874 12.7934 21.9874 12.8733 22.0033 12.9508C22.0214 13.0384 22.0673 13.1212 22.1592 13.2866L23.7297 16.1134C23.9831 16.5696 24.1098 16.7977 24.088 16.9843C24.069 17.1472 23.9823 17.2946 23.8492 17.3903C23.6966 17.5 23.4356 17.5 22.9138 17.5H14.7C14.0466 17.5 13.7199 17.5 13.4703 17.3728C13.2508 17.261 13.0723 17.0825 12.9605 16.863C12.8333 16.6134 12.8333 16.2867 12.8333 15.6333V12.8333M4.66667 24.5L4.66667 4.66667M4.66667 12.8333H14.4667C15.1201 12.8333 15.4468 12.8333 15.6963 12.7062C15.9158 12.5943 16.0943 12.4158 16.2062 12.1963C16.3333 11.9468 16.3333 11.6201 16.3333 10.9667V5.36667C16.3333 4.71327 16.3333 4.38657 16.2062 4.13701C16.0943 3.91749 15.9158 3.73901 15.6963 3.62716C15.4468 3.5 15.1201 3.5 14.4667 3.5H6.53333C5.87994 3.5 5.55324 3.5 5.30368 3.62716C5.08416 3.73901 4.90568 3.91749 4.79383 4.13701C4.66667 4.38657 4.66667 4.71327 4.66667 5.36667V12.8333Z" stroke="white" stroke-width="2" stroke-linecap="round" stroke-linejoin="round"/>
</svg>
