<svg width="28" height="28" viewBox="0 0 28 28" fill="none" xmlns="http://www.w3.org/2000/svg">
<path d="M2.91613 10.5H25.0828M11.6661 3.5L9.33279 10.5L13.9995 23.9167L18.6661 10.5L16.3328 3.5M14.7165 23.6396L25.1682 11.0975C25.3453 10.8849 25.4339 10.7787 25.4677 10.66C25.4976 10.5554 25.4976 10.4446 25.4677 10.34C25.4339 10.2213 25.3453 10.1151 25.1682 9.90249L20.1126 3.83583C20.0098 3.71238 19.9583 3.65066 19.8953 3.60629C19.8394 3.56698 19.7771 3.53778 19.7111 3.52003C19.6367 3.5 19.5563 3.5 19.3956 3.5H8.60328C8.44259 3.5 8.36224 3.5 8.28779 3.52003C8.22183 3.53778 8.15949 3.56698 8.10362 3.60629C8.04057 3.65066 7.98914 3.71238 7.88627 3.83583L2.83071 9.90249C2.65358 10.1151 2.56501 10.2213 2.53117 10.34C2.50133 10.4446 2.50133 10.5554 2.53117 10.66C2.56501 10.7787 2.65358 10.8849 2.83071 11.0975L13.2825 23.6396C13.5287 23.9351 13.6518 24.0828 13.7992 24.1367C13.9285 24.184 14.0704 24.184 14.1997 24.1367C14.3471 24.0828 14.4702 23.9351 14.7165 23.6396Z" stroke="white" stroke-width="2" stroke-linecap="round" stroke-linejoin="round"/>
</svg>
